<?xml version="1.0" encoding="UTF-8"?>
<!-- Generated by Pixelmator Pro 3.6.17 -->
<svg width="16" height="16" viewBox="0 0 16 16" xmlns="http://www.w3.org/2000/svg" xmlns:xlink="http://www.w3.org/1999/xlink">
    <path id="Abgerundetes-Rechteck" fill="#ffffff" fill-rule="evenodd" stroke="none" d="M 0 12 C 0 14.209139 1.790861 16 4 16 L 12 16 C 14.209139 16 16 14.209139 16 12 L 16 4 C 16 1.790861 14.209139 0 12 0 L 4 0 C 1.790861 0 0 1.790861 0 4 Z"/>
    <clipPath id="clip">
    <path d="M 0 12 C 0 14.209139 1.790861 16 4 16 L 12 16 C 14.209139 16 16 14.209139 16 12 L 16 4 C 16 1.790861 14.209139 0 12 0 L 4 0 C 1.790861 0 0 1.790861 0 4 Z"/>
    </clipPath>
    <g id="Gruppe" clip-path="url(#clip)">
        <path id="Pfad" fill="#0d0d0d" stroke="none" d="M 0 0 C 5.28 0 10.56 0 16 0 C 16 5.280001 16 10.56 16 16 C 10.72 16 5.44 16 0 16 C 0 10.72 0 5.440001 0 0 Z"/>
        <path id="path2" fill="#ebebeb" stroke="none" d="M 4 3 C 4.66 3 5.32 3 6 3 C 6.12375 4.0725 6.2475 5.145 6.375 6.25 C 6.89644 9.378636 7.400883 11.334805 9 14 C 7.35 14 5.7 14 4 14 C 4 10.37 4 6.74 4 3 Z"/>
        <path id="path3" fill="#dcdcdc" stroke="none" d="M 8 3 C 11.875 3.875 11.875 3.875 13 5 C 13.040638 6.666171 13.042721 8.333881 13 10 C 12.01 10 11.02 10 10 10 C 10 8.68 10 7.360001 10 6 C 9.01 6 8.02 6 7 6 C 7.33 5.01 7.66 4.02 8 3 Z"/>
    </g>
</svg>
